<svg width="140" height="50" viewBox="0 0 140 50" fill="none" xmlns="http://www.w3.org/2000/svg">
<g clip-path="url(#clip0_2_18)">
<path d="M72.2793 16.5611L78.9399 16.1471C79.0919 17.1943 79.3705 17.9737 79.8263 18.5338C80.5608 19.4106 81.5738 19.849 82.9161 19.849C83.9038 19.849 84.6889 19.6298 85.2207 19.1671C85.7272 18.8017 86.0311 18.2172 86.0311 17.6084C86.0311 17.0239 85.7525 16.4637 85.2713 16.0984C84.7648 15.66 83.5745 15.2216 81.7004 14.8319C78.636 14.1744 76.4327 13.2976 75.1411 12.1773C73.8495 11.13 73.115 9.5957 73.1657 7.96394C73.1657 6.84363 73.5203 5.72332 74.1787 4.79784C74.9385 3.7506 75.9768 2.92254 77.2178 2.4598C78.5601 1.89965 80.4342 1.60739 82.7894 1.60739C85.6766 1.60739 87.8799 2.11884 89.3994 3.16609C90.919 4.18898 91.8307 5.84509 92.1093 8.11007L85.5246 8.47539C85.3473 7.5012 84.9928 6.79492 84.4103 6.33218C83.8278 5.86945 83.068 5.65026 82.0803 5.65026C81.2699 5.65026 80.6621 5.82074 80.2569 6.13735C79.877 6.4296 79.6237 6.86799 79.6491 7.35508C79.6491 7.7204 79.8517 8.06136 80.1556 8.28055C80.4848 8.57281 81.2699 8.84071 82.5108 9.08425C85.5752 9.71747 87.7533 10.3507 89.0955 11.0083C90.4378 11.6658 91.4001 12.4695 91.9826 13.4194C92.5904 14.3936 92.8944 15.5139 92.869 16.6585C92.869 18.0224 92.4638 19.3863 91.6534 20.5309C90.8176 21.7243 89.6527 22.6498 88.2851 23.2099C86.8415 23.8188 85.0181 24.1354 82.8401 24.1354C78.9906 24.1354 76.3314 23.4291 74.8372 21.9922C73.343 20.5553 72.4566 18.753 72.2793 16.5611ZM1.59551 23.7701V1.99706H13.2706C15.4233 1.99706 17.0948 2.16755 18.2344 2.53287C19.3488 2.87383 20.3365 3.58011 20.9949 4.52994C21.7294 5.57719 22.0839 6.79492 22.0586 8.06136C22.1346 10.2046 20.9949 12.2504 19.0449 13.322C18.2851 13.736 17.4493 14.0282 16.5883 14.1744C17.2214 14.3448 17.8546 14.6371 18.4117 14.9781C18.8423 15.319 19.1968 15.7087 19.526 16.1227C19.9059 16.5368 20.2352 16.9995 20.5137 17.4866L23.9074 23.7944H15.9551L12.2069 17.0969C11.7258 16.2445 11.3205 15.6844 10.9407 15.4165C10.4342 15.0755 9.82634 14.905 9.21852 14.905H8.61071V23.7457H1.59551V23.7701ZM8.61071 10.8134H11.5738C12.2069 10.7647 12.8148 10.6673 13.4226 10.5212C13.8784 10.4481 14.2836 10.2046 14.5622 9.83925C15.246 8.96248 15.1447 7.7204 14.309 6.9654C13.8531 6.60008 12.9667 6.40525 11.7004 6.40525H8.61071V10.8134ZM0 42.4257L6.66064 42.0117C6.81259 43.0589 7.09117 43.8383 7.54703 44.3984C8.25615 45.2752 9.2945 45.7379 10.6368 45.7379C11.6245 45.7379 12.4096 45.5187 12.9414 45.056C13.4479 44.6663 13.7518 44.1062 13.7518 43.4973C13.7518 42.9128 13.4732 42.3526 12.992 41.9873C12.4855 41.5489 11.2952 41.1106 9.3958 40.7209C6.3314 40.0633 4.12808 39.1865 2.83647 38.0662C1.54486 37.019 0.81042 35.4846 0.861071 33.8529C0.861071 32.7326 1.21563 31.6123 1.8741 30.6868C2.63386 29.6395 3.67221 28.8115 4.91317 28.3487C6.25543 27.7886 8.12952 27.4963 10.4848 27.4963C13.3719 27.4963 15.5753 28.0078 17.0948 29.055C18.6143 30.1023 19.5007 31.734 19.7793 33.999L13.1946 34.3643C13.0174 33.3901 12.6628 32.6839 12.0803 32.2211C11.5232 31.7584 10.7381 31.5392 9.75036 31.5636C8.93994 31.5636 8.33213 31.734 7.92692 32.075C7.52171 32.3673 7.29378 32.8056 7.3191 33.2927C7.3191 33.658 7.52171 33.999 7.82561 34.2182C8.15485 34.5105 8.93994 34.7784 10.1809 35.0219C13.2453 35.6551 15.4233 36.2883 16.7656 36.9459C18.1078 37.6035 19.0702 38.4072 19.6527 39.357C20.2605 40.3312 20.5644 41.4515 20.5644 42.5718C20.5644 43.9357 20.1339 45.2752 19.3488 46.4199C18.513 47.6132 17.348 48.5387 15.9805 49.0989C14.5369 49.7077 12.7135 50.0243 10.5355 50.0243C6.68596 50.0243 4.02677 49.3181 2.53256 47.8811C1.03835 46.4199 0.202605 44.6176 0 42.4257Z" fill="black"/>
<path d="M33.6831 40.7209L39.8119 42.4988C39.4826 43.9844 38.7988 45.397 37.8618 46.6391C37.0007 47.735 35.8611 48.5874 34.5695 49.1476C33.2525 49.7077 31.581 50 29.555 50C27.0984 50 25.0723 49.659 23.5275 48.9771C21.9573 48.2952 20.615 47.0774 19.4754 45.3483C18.3357 43.6191 17.7786 41.4028 17.7786 38.6995C17.7786 35.095 18.7663 32.3185 20.767 30.3945C22.7677 28.4705 25.5789 27.4963 29.2257 27.4963C32.0875 27.4963 34.3162 28.0565 35.9624 29.1524C37.5832 30.2728 38.7988 31.9776 39.6092 34.2669L33.4298 35.5821C33.2778 35.0706 33.0499 34.5592 32.746 34.1208C32.3661 33.6093 31.8849 33.2197 31.3024 32.9274C30.72 32.6352 30.0615 32.5134 29.403 32.5134C27.8075 32.5134 26.5919 33.1223 25.7561 34.3643C25.123 35.2655 24.7938 36.7024 24.7938 38.6507C24.7938 41.0619 25.1736 42.718 25.9334 43.6191C26.6932 44.5202 27.7569 44.9586 29.1498 44.9586C30.492 44.9586 31.505 44.5933 32.1888 43.887C32.8726 43.132 33.3791 42.0847 33.6831 40.7209ZM47.992 27.8617H54.9819V35.4846H62.6302V27.8617H69.6708V49.6347H62.6302V40.8183H54.9819V49.6347H47.992V27.8617Z" fill="black"/>
<path d="M68.7084 38.7482C68.7084 35.1924 69.7467 32.416 71.7981 30.4432C73.8495 28.4705 76.7366 27.472 80.4088 27.472C84.1823 27.472 87.0694 28.4462 89.1208 30.3945C91.1722 32.3429 92.1852 35.0706 92.1852 38.5777C92.1852 41.1349 91.7294 43.2051 90.843 44.8368C89.9819 46.4442 88.6396 47.7594 86.9935 48.6361C85.2967 49.5373 83.1946 50 80.6874 50C78.1295 50 76.0275 49.6103 74.356 48.831C72.6338 48.0029 71.2156 46.7121 70.2786 45.1291C69.2402 43.4242 68.7084 41.3054 68.7084 38.7482ZM75.6982 38.7725C75.6982 40.9644 76.1288 42.5475 76.9645 43.5217C77.8003 44.4715 78.9653 44.9586 80.4341 44.9586C81.9283 44.9586 83.0933 44.4959 83.9291 43.546C84.7648 42.5962 85.17 40.9157 85.17 38.4803C85.17 36.4345 84.7395 34.9245 83.8784 33.999C83.0174 33.0492 81.8524 32.5865 80.3835 32.5865C79.0919 32.5377 77.8509 33.0735 76.9899 34.0234C76.1288 34.9732 75.6982 36.5562 75.6982 38.7725ZM99.3524 38.7482C99.3524 35.1924 100.391 32.416 102.442 30.4432C104.493 28.4705 107.381 27.472 111.053 27.472C114.826 27.472 117.739 28.4462 119.765 30.3945C121.791 32.3429 122.829 35.0706 122.829 38.5777C122.829 41.1349 122.373 43.2051 121.487 44.8368C120.626 46.4442 119.284 47.7594 117.637 48.6361C115.941 49.5373 113.839 50 111.331 50C108.773 50 106.671 49.6103 105 48.831C103.278 48.0029 101.86 46.7121 100.923 45.1291C99.8842 43.4242 99.3524 41.3054 99.3524 38.7482ZM106.342 38.7725C106.342 40.9644 106.773 42.5475 107.609 43.5217C108.444 44.4715 109.609 44.9586 111.078 44.9586C112.572 44.9586 113.737 44.4959 114.573 43.546C115.409 42.5962 115.814 40.9157 115.814 38.4803C115.814 36.4345 115.383 34.9245 114.522 33.999C113.661 33.0492 112.496 32.5865 111.027 32.5865C109.736 32.5377 108.47 33.0735 107.634 34.0234C106.773 34.9732 106.342 36.5562 106.342 38.7725Z" fill="black"/>
<path d="M122.095 27.8617H129.085V44.2767H140V49.6347H122.069V27.8617H122.095Z" fill="black"/>
<path d="M114.39 26.6051C121.428 21.5053 123.598 12.8602 119.237 7.29584C114.877 1.73146 105.637 1.35489 98.6 6.45474C91.5627 11.5546 89.3926 20.1997 93.753 25.764C98.1134 31.3284 107.353 31.705 114.39 26.6051Z" fill="white"/>
<mask id="mask0_2_18" style="mask-type:luminance" maskUnits="userSpaceOnUse" x="91" y="2" width="31" height="29">
<path d="M114.39 26.6051C121.428 21.5053 123.598 12.8602 119.237 7.29584C114.877 1.73146 105.637 1.35489 98.6 6.45474C91.5627 11.5546 89.3926 20.1997 93.753 25.764C98.1134 31.3284 107.353 31.705 114.39 26.6051Z" fill="white"/>
</mask>
<g mask="url(#mask0_2_18)">
<path d="M75.8058 13.7703L112.172 -12.5836L137.336 19.5287L100.97 45.8825L75.8058 13.7703Z" fill="white"/>
<mask id="mask1_2_18" style="mask-type:luminance" maskUnits="userSpaceOnUse" x="75" y="-13" width="63" height="59">
<path d="M75.8058 13.7703L112.172 -12.5836L137.336 19.5287L100.97 45.8825L75.8058 13.7703Z" fill="white"/>
</mask>
<g mask="url(#mask1_2_18)">
<path d="M114.39 26.6051C121.428 21.5053 123.598 12.8602 119.237 7.29584C114.877 1.73146 105.637 1.35489 98.6 6.45474C91.5627 11.5546 89.3926 20.1997 93.753 25.764C98.1134 31.3284 107.353 31.705 114.39 26.6051Z" fill="white"/>
<mask id="mask2_2_18" style="mask-type:luminance" maskUnits="userSpaceOnUse" x="91" y="2" width="31" height="29">
<path d="M114.39 26.6051C121.428 21.5053 123.598 12.8602 119.237 7.29584C114.877 1.73146 105.637 1.35489 98.6 6.45474C91.5627 11.5546 89.3926 20.1997 93.753 25.764C98.1134 31.3284 107.353 31.705 114.39 26.6051Z" fill="white"/>
</mask>
<g mask="url(#mask2_2_18)">
<path d="M85.9324 15.9145L111.397 -2.53864L127.202 17.6315L101.738 36.0846L85.9324 15.9145Z" fill="white"/>
<mask id="mask3_2_18" style="mask-type:luminance" maskUnits="userSpaceOnUse" x="85" y="-3" width="43" height="40">
<path d="M85.9324 15.9145L111.397 -2.53864L127.202 17.6315L101.738 36.0846L85.9324 15.9145Z" fill="white"/>
</mask>
<g mask="url(#mask3_2_18)">
<path d="M114.39 26.6051C121.428 21.5053 123.598 12.8602 119.237 7.29584C114.877 1.73146 105.637 1.35489 98.6 6.45474C91.5627 11.5546 89.3926 20.1997 93.753 25.764C98.1134 31.3284 107.353 31.705 114.39 26.6051Z" fill="white" stroke="black" stroke-width="4" stroke-miterlimit="10"/>
</g>
<mask id="mask4_2_18" style="mask-type:luminance" maskUnits="userSpaceOnUse" x="89" y="-2" width="35" height="37">
<path d="M89.5612 27.9137L98.2171 -1.44688L123.595 5.62862L114.939 34.9892L89.5612 27.9137Z" fill="white"/>
</mask>
<g mask="url(#mask4_2_18)">
<path d="M85.9324 15.8107L111.292 -2.53865L127.202 17.7353L101.843 36.0846L85.9324 15.8107Z" stroke="black" stroke-width="4" stroke-miterlimit="10"/>
</g>
<path d="M114.39 26.6051C121.428 21.5053 123.598 12.8602 119.237 7.29584C114.877 1.73146 105.637 1.35489 98.6 6.45474C91.5627 11.5546 89.3926 20.1997 93.753 25.764C98.1134 31.3284 107.353 31.705 114.39 26.6051Z" stroke="black" stroke-width="4" stroke-miterlimit="10"/>
<path d="M85.9324 15.9145L111.397 -2.53864L127.202 17.6315L101.738 36.0846L85.9324 15.9145Z" fill="white"/>
<mask id="mask5_2_18" style="mask-type:luminance" maskUnits="userSpaceOnUse" x="85" y="-3" width="43" height="40">
<path d="M85.9324 15.9145L111.397 -2.53864L127.202 17.6315L101.738 36.0846L85.9324 15.9145Z" fill="white"/>
</mask>
<g mask="url(#mask5_2_18)">
<path d="M114.39 26.6051C121.428 21.5053 123.598 12.8602 119.237 7.29584C114.877 1.73146 105.637 1.35489 98.6 6.45474C91.5627 11.5546 89.3926 20.1997 93.753 25.764C98.1134 31.3284 107.353 31.705 114.39 26.6051Z" fill="white" stroke="black" stroke-width="4" stroke-miterlimit="10"/>
</g>
<mask id="mask6_2_18" style="mask-type:luminance" maskUnits="userSpaceOnUse" x="89" y="-2" width="35" height="37">
<path d="M89.5612 27.9137L98.2171 -1.44688L123.595 5.62862L114.939 34.9892L89.5612 27.9137Z" fill="white"/>
</mask>
<g mask="url(#mask6_2_18)">
<path d="M85.9324 15.8107L111.292 -2.53865L127.202 17.7353L101.843 36.0846L85.9324 15.8107Z" stroke="black" stroke-width="4" stroke-miterlimit="10"/>
</g>
<path d="M75.8058 13.7703L112.172 -12.5836L137.336 19.5287L100.97 45.8825L75.8058 13.7703Z" stroke="black" stroke-width="4" stroke-miterlimit="10"/>
</g>
<path d="M114.39 26.6051C121.428 21.5053 123.598 12.8602 119.237 7.29584C114.877 1.73146 105.637 1.35489 98.6 6.45474C91.5627 11.5546 89.3926 20.1997 93.753 25.764C98.1134 31.3284 107.353 31.705 114.39 26.6051Z" stroke="black" stroke-width="4" stroke-miterlimit="10"/>
<path d="M99.3777 14.9294L101.91 13.2246L105.025 17.4866C105.557 18.1686 105.962 18.8992 106.266 19.7029C106.444 20.3118 106.393 20.9693 106.14 21.5538C105.81 22.2845 105.279 22.8933 104.569 23.3317C103.734 23.8919 103.025 24.2085 102.417 24.3059C101.834 24.4033 101.226 24.3059 100.669 24.0624C100.061 23.7701 99.5297 23.3561 99.1245 22.8203L101.302 20.8719C101.48 21.1398 101.708 21.3834 101.961 21.5782C102.138 21.7 102.341 21.773 102.569 21.773C102.746 21.773 102.923 21.7 103.05 21.6026C103.303 21.4564 103.48 21.1642 103.455 20.8719C103.379 20.4579 103.202 20.0439 102.923 19.7272L99.3777 14.9294ZM106.975 17.6328L109.28 15.8792C109.533 16.1715 109.863 16.3907 110.217 16.5124C110.724 16.6586 111.255 16.5611 111.686 16.2445C111.99 16.0497 112.243 15.7818 112.344 15.4408C112.496 15.0025 112.243 14.5154 111.787 14.3692C111.711 14.3449 111.635 14.3205 111.559 14.3205C111.255 14.2962 110.724 14.4179 109.938 14.7346C108.647 15.246 107.634 15.4408 106.874 15.3678C106.14 15.2947 105.456 14.9294 105.051 14.3205C104.747 13.9065 104.595 13.4194 104.569 12.9323C104.569 12.3722 104.721 11.812 105.051 11.3493C105.532 10.6917 106.114 10.1315 106.823 9.69315C107.887 8.98687 108.824 8.6459 109.635 8.6459C110.445 8.6459 111.205 9.01122 111.914 9.76622L109.635 11.4954C109.179 10.9352 108.318 10.8135 107.735 11.2518L107.659 11.3249C107.406 11.471 107.229 11.6902 107.127 11.9581C107.051 12.153 107.102 12.3722 107.229 12.5426C107.33 12.6644 107.482 12.7618 107.659 12.7618C107.862 12.7862 108.216 12.6888 108.723 12.4696C109.989 11.9581 110.952 11.6659 111.61 11.5685C112.167 11.471 112.75 11.5197 113.281 11.7389C113.763 11.9338 114.168 12.2747 114.446 12.6888C114.801 13.1759 115.004 13.7604 115.029 14.3692C115.054 15.0025 114.877 15.6113 114.522 16.1471C114.067 16.8047 113.484 17.3649 112.8 17.8032C111.407 18.7287 110.268 19.1184 109.356 18.9723C108.368 18.8261 107.558 18.339 106.975 17.6328Z" fill="black"/>
</g>
</g>
</g>
<defs>
<clipPath id="clip0_2_18">
<rect width="140" height="50" fill="white"/>
</clipPath>
</defs>
</svg>
